#!OML:ASF Y:\EmotionMaleHayes\Project 1\Capture day 1\Session 1\Male1.ASF
:FULLY-SPECIFIED
:DEGREES
1153
root 10.0105 17.0028 -0.00975738 402.873 82.9681 408.193
lowerback 3.67 0.911082 -5.06274
upperback 10.0294 1.67791 0.448831
thorax 8.37989 0.585421 3.38608
lowerneck -17.3712 -3.77893 2.31837
upperneck 34.1296 -5.70236 0.655932
head 14.6518 -1.70259 -1.03577
rclavicle -2.78299e-015 -7.15625e-015
rhumerus -6.56115 39.3033 -92.0124
rradius 137.952
rwrist -11.3451
rhand -15.4355 -22.4481
rfingers 7.12502
rthumb 10.7447 -52.1533
lclavicle -2.78299e-015 -7.15625e-015
lhumerus -25.4597 -82.8882 110.958
lradius 98.3774
lwrist 3.37837
lhand -27.1003 -64.4428
lfingers 7.12502
lthumb -0.51698 -34.4637
rfemur -2.52788 2.07435 9.05521
rtibia 28.4191
rfoot -19.252 -0.246977
rtoes -13.9888
lfemur 6.54943 4.68278 -27.5824
ltibia 14.3849
lfoot -15.4279 8.33777
ltoes -4.45005
1154
root 10.0104 17.0052 0.00245135 408.337 83.487 413.666
lowerback 3.58577 0.891798 -5.09278
upperback 10.0819 1.66404 0.482485
thorax 8.48839 0.573258 3.44204
lowerneck -17.5413 -3.74071 2.1817
upperneck 34.0109 -5.62504 0.702512
head 14.6436 -1.68448 -0.983071
rclavicle -3.97569e-015 0
rhumerus -6.85602 39.3682 -91.6817
rradius 137.848
rwrist -11.3058
rhand -14.6005 -22.8667
rfingers 7.12502
rthumb 11.55 -52.5284
lclavicle -3.97569e-015 0
lhumerus -24.6659 -82.4616 110.214
lradius 98.3317
lwrist 3.30135
lhand -28.3237 -63.5243
lfingers 7.12502
lthumb -1.69856 -33.5513
rfemur -2.54191 2.19026 8.89941
rtibia 28.8343
rfoot -19.3101 -0.0194037
rtoes -15.6951
lfemur 6.59211 4.39412 -27.6217
ltibia 14.2814
lfoot -15.3084 7.91103
ltoes -4.02564
1155
root 10.01 17.0085 0.0163897 414.714 83.888 420.042
lowerback 3.5589 0.9303 -5.23774
upperback 10.1089 1.72299 0.541204
thorax 8.52662 0.589038 3.5892
lowerneck -17.7734 -3.74058 2.2521
upperneck 33.9262 -5.59342 0.511554
head 14.6458 -1.69119 -1.07252
rclavicle 4.77083e-015 -1.59028e-015
rhumerus -7.6074 39.7308 -91.4915
rradius 137.613
rwrist -10.0998
rhand -14.1561 -23.2857
rfingers 7.12502
rthumb 11.9786 -52.9229
lclavicle 4.77083e-015 -1.59028e-015
lhumerus -24.9761 -82.0667 110.609
lradius 98.3961
lwrist 3.35269
lhand -25.8787 -62.2094
lfingers 7.12502
lthumb 0.662934 -32.2307
rfemur -2.53648 2.36997 8.69339
rtibia 29.1364
rfoot -19.3972 0.430487
rtoes -15.4837
lfemur 6.65359 4.0488 -27.726
ltibia 14.1114
lfoot -15.1182 7.54829
ltoes -3.80256
1156
root 10.0084 17.013 0.0297133 421.923 84.2457 427.263
lowerback 3.68341 0.981899 -5.25824
upperback 9.98776 1.77761 0.553581
thorax 8.31232 0.621883 3.60908
lowerneck -17.7065 -3.75025 2.36633
upperneck 33.8963 -5.56635 0.328094
head 14.604 -1.68915 -1.15913
rclavicle -1.78906e-015 -4.77083e-015
rhumerus -8.66152 39.5283 -91.4985
rradius 137.408
rwrist -10.9645
rhand -13.1265 -23.248
rfingers 7.12502
rthumb 12.9713 -52.8248
lclavicle -1.78906e-015 -4.77083e-015
lhumerus -26.2397 -81.6519 111.912
lradius 98.47
lwrist 3.61169
lhand -28.1914 -59.6324
lfingers 7.12502
lthumb -1.57076 -29.6585
rfemur -2.42723 2.56226 8.53659
rtibia 29.2861
rfoot -19.6059 0.705877
rtoes -16.4037
lfemur 6.7137 3.67729 -27.7915
ltibia 13.9469
lfoot -14.8352 7.27245
ltoes -4.76182
1157
root 10.0072 17.0154 0.0451556 428.7 84.6004 434.087
lowerback 3.74555 1.05541 -5.01052
upperback 9.81821 1.85929 0.503615
thorax 8.08162 0.69087 3.41364
lowerneck -17.3607 -3.75293 2.38777
upperneck 33.8463 -5.54625 0.350733
head 14.5032 -1.67226 -1.13885
rclavicle 5.36719e-015 1.35174e-014
rhumerus -9.98982 39.581 -91.7099
rradius 137.129
rwrist -10.7176
rhand -12.3486 -23.5201
rfingers 7.12502
rthumb 13.721 -53.0478
lclavicle 5.36719e-015 1.35174e-014
lhumerus -28.3836 -81.2716 114.046
lradius 98.3979
lwrist 3.672
lhand -24.5918 -57.9145
lfingers 7.12502
lthumb 1.90585 -27.9432
rfemur -2.32569 2.74204 8.55892
rtibia 29.4943
rfoot -19.7972 0.973546
rtoes -15.7421
lfemur 6.81712 3.40444 -27.6435
ltibia 13.7801
lfoot -14.5163 6.95495
ltoes -6.36632
1158
root 10.0107 17.0184 0.0610713 437.202 84.7208 442.661
lowerback 3.66846 1.03642 -5.14031
upperback 9.93515 1.85642 0.501867
thorax 8.25657 0.677309 3.49005
lowerneck -17.7113 -3.67173 2.40161
upperneck 33.7223 -5.47732 0.406152
head 14.5293 -1.63789 -1.11479
rclavicle -1.39149e-014 -3.18055e-015
rhumerus -10.442 39.792 -91.2751
rradius 136.598
rwrist -10.336
rhand -11.6482 -23.7994
rfingers 7.12502
rthumb 14.396 -53.2802
lclavicle -1.39149e-014 -3.18055e-015
lhumerus -27.5726 -80.8555 113.295
lradius 98.3487
lwrist 3.62788
lhand -24.583 -55.6474
lfingers 7.12502
lthumb 1.91435 -25.6762
rfemur -2.13834 2.78778 8.33954
rtibia 29.6296
rfoot -19.8319 1.48318
rtoes -12.8413
lfemur 6.95708 3.14255 -27.6862
ltibia 13.6435
lfoot -14.3112 6.51428
ltoes -6.57936
1159
root 10.0173 17.0221 0.0760539 446.013 84.6889 451.537
lowerback 3.61971 1.01429 -5.27504
upperback 9.96724 1.83954 0.496177
thorax 8.32201 0.658782 3.5615
lowerneck -17.724 -3.66498 2.2942
upperneck 33.4941 -5.48509 0.553744
head 14.4387 -1.64366 -1.03556
rclavicle 0 -9.54166e-015
rhumerus -11.1669 39.8713 -90.9333
rradius 135.886
rwrist -9.79901
rhand -11.1599 -24.0942
rfingers 7.12502
rthumb 14.8664 -53.5408
lclavicle 0 -9.54166e-015
lhumerus -28.3607 -80.3942 114.076
lradius 98.3627
lwrist 3.47349
lhand -21.9634 -53.4584
lfingers 7.12502
lthumb 4.44415 -23.525
rfemur -1.83132 2.91572 8.09623
rtibia 29.5701
rfoot -19.9165 1.78463
rtoes -12.1913
lfemur 7.11308 2.81886 -27.7971
ltibia 13.4804
lfoot -14.1514 6.12273
ltoes -6.08225
1160
root 10.0189 17.0238 0.0916472 453.654 84.7606 459.17
lowerback 3.6269 1.04367 -5.16657
upperback 9.88828 1.86922 0.537092
thorax 8.22617 0.683362 3.54295
lowerneck -17.6677 -3.68088 2.21881
upperneck 33.4059 -5.48441 0.585556
head 14.3899 -1.65014 -1.0067
rclavicle -5.76476e-015 3.18055e-015
rhumerus -12.0278 39.038 -90.592
rradius 134.993
rwrist -11.903
rhand -9.63114 -22.9213
rfingers 7.12502
rthumb 16.3388 -52.253
lclavicle -5.76476e-015 3.18055e-015
lhumerus -29.1166 -79.898 114.892
lradius 98.2859
lwrist 3.50897
lhand -21.5806 -50.4246
lfingers 7.12502
lthumb 4.81374 -20.4993
rfemur -1.70553 3.22406 8.19844
rtibia 29.5869
rfoot -20.0492 1.74288
rtoes -13.1005
lfemur 7.14797 2.47807 -27.6548
ltibia 13.371
lfoot -14.0863 5.78242
ltoes -5.09098
1161
root 10.017 17.0269 0.105944 460.771 84.5185 466.216
lowerback 3.60288 1.07493 -5.31019
upperback 9.81658 1.91089 0.531207
thorax 8.15496 0.696006 3.61724
lowerneck -17.6957 -3.65571 2.14284
upperneck 33.2724 -5.41327 0.563334
head 14.3379 -1.63739 -0.989692
rclavicle -6.55989e-015 1.59028e-015
rhumerus -13.0348 38.8691 -90.3526
rradius 134.32
rwrist -12.1618
rhand -8.54037 -23.3133
rfingers 7.12502
rthumb 17.3888 -52.5554
lclavicle -6.55989e-015 1.59028e-015
lhumerus -28.4952 -79.3359 114.464
lradius 98.1656
lwrist 4.23412
lhand -19.8093 -47.3754
lfingers 7.12502
lthumb 6.52389 -17.4959
rfemur -1.70264 3.41331 7.98539
rtibia 29.7131
rfoot -20.1357 1.79081
rtoes -12.7666
lfemur 7.06043 2.13729 -27.8016
ltibia 13.3541
lfoot -14.1029 5.39613
ltoes -3.42971
1162
root 10.0208 17.0316 0.119048 467.117 84.0597 472.539
lowerback 3.55349 1.0834 -5.57931
upperback 9.80132 1.93439 0.487666
thorax 8.16357 0.690236 3.72367
lowerneck -17.3155 -3.75532 1.76907
upperneck 32.7163 -5.5496 0.940507
head 14.0328 -1.71625 -0.783312
rclavicle -1.63003e-014 7.15625e-015
rhumerus -13.9372 38.9308 -89.9875
rradius 133.663
rwrist -11.5434
rhand -7.60715 -24.2597
rfingers 7.12502
rthumb 18.2868 -53.4201
lclavicle -1.63003e-014 7.15625e-015
lhumerus -27.982 -78.813 114.1
lradius 98.0346
lwrist 4.50825
lhand -19.8093 -47.3754
lfingers 7.12502
lthumb 6.52389 -17.4959
rfemur -1.4317 3.42901 7.54731
rtibia 29.5384
rfoot -20.1784 1.90505
rtoes -11.7858
lfemur 7.10148 1.76641 -28.1292
ltibia 13.225
lfoot -13.9164 5.07057
ltoes -3.04802
1163
root 10.0275 17.0348 0.137481 473.124 83.8035 478.558
lowerback 3.50241 1.12426 -5.57292
upperback 9.7692 1.99218 0.48455
thorax 8.15146 0.720781 3.71934
lowerneck -17.7484 -3.73283 1.89683
upperneck 32.9495 -5.52397 0.787125
head 14.2218 -1.69604 -0.874078
rclavicle 1.70955e-014 1.43125e-014
rhumerus -15.0688 38.8846 -89.8481
rradius 132.97
rwrist -10.6073
rhand -6.86213 -25.1378
rfingers 7.12502
rthumb 19.0034 -54.2295
lclavicle 1.70955e-014 1.43125e-014
lhumerus -28.9566 -78.3512 115.096
lradius 97.8191
lwrist 3.48044
lhand -19.8093 -47.3754
lfingers 7.12502
lthumb 6.52389 -17.4959
rfemur -1.02437 3.51572 7.49016
rtibia 29.1158
rfoot -20.1479 1.8446
rtoes -10.3297
lfemur 7.19216 1.48706 -28.0531
ltibia 13.0533
lfoot -13.6982 4.74019
ltoes -3.64802
1164
root 10.0297 17.0382 0.160007 478.042 83.5547 483.426
lowerback 3.46562 1.21099 -5.58376
upperback 9.67599 2.104 0.476967
thorax 8.05704 0.778864 3.71921
lowerneck -17.8419 -3.73886 1.87729
upperneck 32.8846 -5.53123 0.795045
head 14.2146 -1.70119 -0.870093
rclavicle 2.36554e-014 1.59028e-014
rhumerus -16.5824 38.9799 -90.1054
rradius 132.284
rwrist -8.70351
rhand -6.94659 -25.918
rfingers 7.12502
rthumb 18.9222 -55.0176
lclavicle 2.36554e-014 1.59028e-014
lhumerus -30.2598 -77.7321 116.349
lradius 97.6104
lwrist 2.52739
lhand -19.8093 -47.3754
lfingers 7.12502
lthumb 6.52389 -17.4959
rfemur -0.814741 3.7211 7.51302
rtibia 28.8778
rfoot -20.3073 1.63803
rtoes -9.55256
lfemur 7.16766 1.29688 -27.8749
ltibia 12.946
lfoot -13.6268 4.37723
ltoes -3.92461
1165
root 10.0317 17.0425 0.180824 482.209 83.2717 487.547
lowerback 3.48666 1.31908 -5.56482
upperback 9.57076 2.24096 0.448984
thorax 7.91427 0.854462 3.67896
lowerneck -17.7675 -3.77751 1.69271
upperneck 32.6427 -5.59742 1.01517
head 14.1062 -1.73112 -0.757469
rclavicle 8.34896e-015 7.95139e-015
rhumerus -17.9628 38.4901 -90.1871
rradius 131.689
rwrist -8.28363
rhand -6.6276 -26.2936
rfingers 7.12502
rthumb 19.2289 -55.363
lclavicle 8.34896e-015 7.95139e-015
lhumerus -30.7688 -76.8574 116.777
lradius 97.5726
lwrist 2.91769
lhand -19.8093 -47.3754
lfingers 7.12502
lthumb 6.52389 -17.4959
rfemur -0.598658 3.89089 7.5183
rtibia 28.6505
rfoot -20.551 1.33785
rtoes -9.25647
lfemur 7.20477 1.0683 -27.7522
ltibia 12.7413
lfoot -13.4876 4.10339
ltoes -4.23803
1166
root 10.0362 17.0457 0.201228 486.475 83.0305 491.809
lowerback 3.59561 1.46423 -5.35656
upperback 9.43344 2.41637 0.429588
thorax 7.6845 0.965525 3.53825
lowerneck -17.5763 -3.91457 1.43575
upperneck 32.4044 -5.78833 1.27757
head 13.9787 -1.81677 -0.634175
rclavicle -1.23246e-014 6.36111e-015
rhumerus -19.4891 37.6309 -90.2729
rradius 131.138
rwrist -7.88038
rhand -6.30142 -26.2793
rfingers 7.12502
rthumb 19.5426 -55.3172
lclavicle -1.23246e-014 6.36111e-015
lhumerus -31.0099 -75.8859 117.028
lradius 97.6428
lwrist 4.60955
lhand -19.8093 -47.3754
lfingers 7.12502
lthumb 6.52389 -17.4959
rfemur -0.304826 3.99109 7.66084
rtibia 28.347
rfoot -20.8242 0.80595
rtoes -8.8142
lfemur 7.3073 0.886814 -27.5148
ltibia 12.4851
lfoot -13.2362 3.81371
ltoes -5.07386
